<?xml version="1.0" encoding="UTF-8"?>
<!DOCTYPE svg PUBLIC "-//W3C//DTD SVG 1.1//EN" "http://www.w3.org/Graphics/SVG/1.1/DTD/svg11.dtd">
<svg xmlns="http://www.w3.org/2000/svg" version="1.1" width="804px" height="797px" style="shape-rendering:geometricPrecision; text-rendering:geometricPrecision; image-rendering:optimizeQuality; fill-rule:evenodd; clip-rule:evenodd" xmlns:xlink="http://www.w3.org/1999/xlink">
<g><path style="opacity:1" fill="#4d7e3e" d="M -0.5,-0.5 C 267.5,-0.5 535.5,-0.5 803.5,-0.5C 803.5,265.167 803.5,530.833 803.5,796.5C 535.5,796.5 267.5,796.5 -0.5,796.5C -0.5,530.833 -0.5,265.167 -0.5,-0.5 Z"/></g>
<g><path style="opacity:1" fill="#c5ecc3" d="M 644.5,659.5 C 640.845,661.377 637.178,663.043 633.5,664.5C 627.527,665.768 621.527,666.934 615.5,668C 580.833,668.333 546.167,668.667 511.5,669C 486.472,694.362 461.139,719.362 435.5,744C 416.986,758.147 396.986,760.814 375.5,752C 368.492,748.165 361.826,743.831 355.5,739C 332.221,715.721 308.887,692.387 285.5,669C 268.17,668.5 250.837,668.333 233.5,668.5C 217.5,668.5 201.5,668.5 185.5,668.5C 169.231,666.95 155.064,660.617 143,649.5C 133.102,635.475 127.769,619.808 127,602.5C 126.667,571.5 126.333,540.5 126,509.5C 106.638,489.805 86.9717,470.471 67,451.5C 58.7758,442.718 51.7758,433.051 46,422.5C 37.5479,403.712 38.8812,385.712 50,368.5C 52.6153,364.217 55.6153,360.217 59,356.5C 81.6667,333.833 104.333,311.167 127,288.5C 127.333,253.167 127.667,217.833 128,182.5C 132.227,147.94 151.727,129.44 186.5,127C 220.833,126.667 255.167,126.333 289.5,126C 313.167,102.333 336.833,78.6667 360.5,55C 387.52,32.1272 414.853,31.7939 442.5,54C 467.085,77.5838 491.418,101.584 515.5,126C 548.833,126.333 582.167,126.667 615.5,127C 629.919,128.47 642.919,133.47 654.5,142C 664.822,153.147 670.988,166.314 673,181.5C 673.333,215.833 673.667,250.167 674,284.5C 696.721,307.221 719.387,329.887 742,352.5C 766.621,381.209 766.621,409.876 742,438.5C 719.667,460.833 697.333,483.167 675,505.5C 674.667,537.167 674.333,568.833 674,600.5C 673.75,615.422 670.084,629.422 663,642.5C 658.567,650.102 652.4,655.768 644.5,659.5 Z"/></g>
<g><path style="opacity:1" fill="#4d7e3e" d="M 501.5,125.5 C 487.167,126.167 472.833,126.833 458.5,127.5C 456.11,127.685 455.11,129.018 455.5,131.5C 455.39,133.374 456.056,134.874 457.5,136C 475.833,136.333 494.167,136.667 512.5,137C 562.667,187.167 612.833,237.333 663,287.5C 663.667,359.5 663.667,431.5 663,503.5C 650,516.5 637,529.5 624,542.5C 622.959,545.636 623.793,548.136 626.5,550C 628.289,550.52 629.956,550.187 631.5,549C 642.333,538.167 653.167,527.333 664,516.5C 664.667,544.833 664.667,573.167 664,601.5C 663.237,612.986 660.57,623.986 656,634.5C 649.306,645.934 639.473,653.101 626.5,656C 592.196,657.618 557.863,657.951 523.5,657C 532.333,648.167 541.167,639.333 550,630.5C 550.34,625.178 547.84,623.011 542.5,624C 531.5,635 520.5,646 509.5,657C 494.17,657.5 478.837,657.667 463.5,657.5C 459.571,646.542 452.237,643.376 441.5,648C 433.601,655.298 433.601,662.631 441.5,670C 443.804,670.895 446.138,671.729 448.5,672.5C 442.24,673.591 437.907,677.091 435.5,683C 427.454,684.326 426.788,683.159 433.5,679.5C 431.358,675.59 428.025,673.424 423.5,673C 426.833,672.667 430.167,672.333 433.5,672C 434.602,669.599 434.769,667.099 434,664.5C 429.263,663.531 424.43,663.197 419.5,663.5C 419.666,658.156 419.499,652.823 419,647.5C 416.281,646.556 413.448,646.223 410.5,646.5C 410.5,655.167 410.5,663.833 410.5,672.5C 414.182,672.335 417.848,672.501 421.5,673C 409.891,675.718 406.391,682.552 411,693.5C 421.351,702.277 429.684,700.61 436,688.5C 440.229,698.619 447.396,701.452 457.5,697C 465.5,689.667 465.5,682.333 457.5,675C 455.196,674.105 452.862,673.271 450.5,672.5C 453.703,672.018 456.369,670.685 458.5,668.5C 471.504,668.333 484.504,668.5 497.5,669C 475.139,691.695 452.472,714.028 429.5,736C 411.21,750.176 392.21,751.176 372.5,739C 368.5,736 364.5,733 360.5,730C 340.167,709.667 319.833,689.333 299.5,669C 313.167,668.667 326.833,668.333 340.5,668C 345.395,665.177 345.729,661.843 341.5,658C 323.5,657.667 305.5,657.333 287.5,657C 238.333,606.5 188.5,556.667 138,507.5C 137.333,435.5 137.333,363.5 138,291.5C 150,279.5 162,267.5 174,255.5C 175.668,249.507 173.502,247.007 167.5,248C 157.965,257.702 148.298,267.202 138.5,276.5C 137.502,248.672 137.169,220.672 137.5,192.5C 136.7,173.719 143.366,158.219 157.5,146C 166.095,140.685 175.428,137.852 185.5,137.5C 216.005,137.169 246.338,137.502 276.5,138.5C 267.869,147.632 259.036,156.632 250,165.5C 249.056,171.553 251.556,173.72 257.5,172C 269.167,160.333 280.833,148.667 292.5,137C 309.167,136.667 325.833,136.333 342.5,136C 346.729,132.453 346.396,129.62 341.5,127.5C 328.833,126.833 316.167,126.167 303.5,125.5C 325.66,103.507 347.994,81.6733 370.5,60C 392.341,43.2144 414.008,43.5477 435.5,61C 440.833,65.6667 446.167,70.3333 451.5,75C 467.673,92.3395 484.34,109.173 501.5,125.5 Z"/></g>
<g><path style="opacity:1" fill="#abd3a6" d="M 303.5,125.5 C 316.167,126.167 328.833,126.833 341.5,127.5C 328.483,127.832 315.483,127.499 302.5,126.5C 302.624,125.893 302.957,125.56 303.5,125.5 Z"/></g>
<g><path style="opacity:1" fill="#aad3a5" d="M 501.5,125.5 C 502.043,125.56 502.376,125.893 502.5,126.5C 487.848,127.499 473.182,127.833 458.5,127.5C 472.833,126.833 487.167,126.167 501.5,125.5 Z"/></g>
<g><path style="opacity:1" fill="#6f9c63" d="M 185.5,137.5 C 216.331,136.336 247.331,136.169 278.5,137C 277.956,137.717 277.289,138.217 276.5,138.5C 246.338,137.502 216.005,137.169 185.5,137.5 Z"/></g>
<g><path style="opacity:1" fill="#4e7e3f" d="M 663.5,193.5 C 663.831,220.339 663.498,247.005 662.5,273.5C 616.701,228.534 571.367,183.034 526.5,137C 555.167,136.333 583.833,136.333 612.5,137C 646.763,140.102 663.763,158.935 663.5,193.5 Z"/></g>
<g><path style="opacity:1" fill="#508041" d="M 223.5,195.5 C 236.427,197.359 240.594,204.359 236,216.5C 233.321,219.923 229.821,221.923 225.5,222.5C 236.013,224.866 239.846,231.199 237,241.5C 232.517,248.399 226.35,250.565 218.5,248C 214.51,246.01 212.01,242.843 211,238.5C 206.617,248.405 199.45,251.238 189.5,247C 182.133,240.27 181.8,233.27 188.5,226C 190.957,224.438 193.624,223.438 196.5,223C 192.848,222.501 189.182,222.335 185.5,222.5C 185.5,213.833 185.5,205.167 185.5,196.5C 188.448,196.223 191.281,196.556 194,197.5C 194.499,202.823 194.666,208.156 194.5,213.5C 199.43,213.197 204.263,213.531 209,214.5C 209.769,217.099 209.602,219.599 208.5,222C 205.167,222.333 201.833,222.667 198.5,223C 203.025,223.424 206.358,225.59 208.5,229.5C 201.788,233.159 202.454,234.326 210.5,233C 212.907,227.091 217.24,223.591 223.5,222.5C 211.968,219.436 208.468,212.436 213,201.5C 215.793,198.027 219.293,196.027 223.5,195.5 Z"/></g>
<g><path style="opacity:1" fill="#508041" d="M 448.5,195.5 C 461.427,197.359 465.594,204.359 461,216.5C 458.321,219.923 454.821,221.923 450.5,222.5C 461.013,224.866 464.846,231.199 462,241.5C 457.517,248.399 451.35,250.565 443.5,248C 439.51,246.01 437.01,242.843 436,238.5C 431.617,248.405 424.45,251.238 414.5,247C 407.133,240.27 406.8,233.27 413.5,226C 415.957,224.438 418.624,223.438 421.5,223C 417.848,222.501 414.182,222.335 410.5,222.5C 410.5,213.833 410.5,205.167 410.5,196.5C 413.448,196.223 416.281,196.556 419,197.5C 419.499,202.823 419.666,208.156 419.5,213.5C 424.43,213.197 429.263,213.531 434,214.5C 434.769,217.099 434.602,219.599 433.5,222C 430.167,222.333 426.833,222.667 423.5,223C 428.025,223.424 431.358,225.59 433.5,229.5C 426.788,233.159 427.454,234.326 435.5,233C 437.907,227.091 442.24,223.591 448.5,222.5C 436.968,219.436 433.468,212.436 438,201.5C 440.793,198.027 444.293,196.027 448.5,195.5 Z"/></g>
<g><path style="opacity:1" fill="#85b17c" d="M 663.5,193.5 C 664.829,220.336 664.829,247.336 663.5,274.5C 662.893,274.376 662.56,274.043 662.5,273.5C 663.498,247.005 663.831,220.339 663.5,193.5 Z"/></g>
<g><path style="opacity:1" fill="#82ae78" d="M 137.5,192.5 C 137.169,220.672 137.502,248.672 138.5,276.5C 138.44,277.043 138.107,277.376 137.5,277.5C 136.171,249.003 136.171,220.67 137.5,192.5 Z"/></g>
<g><path style="opacity:1" fill="#c8eec6" d="M 238.5,466.5 C 233.696,451.421 228.696,436.421 223.5,421.5C 213.768,391.138 203.935,360.804 194,330.5C 187.844,327.695 182.178,324.028 177,319.5C 177.547,311.863 178.214,304.197 179,296.5C 202.27,294.516 225.77,293.849 249.5,294.5C 250.454,302.824 250.954,311.157 251,319.5C 247.483,323.184 243.316,325.851 238.5,327.5C 238.167,328.167 237.833,328.833 237.5,329.5C 246.818,362.948 256.318,396.281 266,429.5C 268.047,439.43 269.547,449.43 270.5,459.5C 271.833,459.5 273.167,459.5 274.5,459.5C 274.393,453.12 274.893,446.787 276,440.5C 285.507,402.979 296.34,365.812 308.5,329C 302.781,326.725 297.615,323.558 293,319.5C 293.502,311.484 294.335,303.484 295.5,295.5C 318.157,294.5 340.824,294.167 363.5,294.5C 364.367,302.872 365.2,311.205 366,319.5C 360.162,324.836 353.329,328.169 345.5,329.5C 327.585,386.246 309.252,442.913 290.5,499.5C 276.833,500.833 263.167,500.833 249.5,499.5C 245.623,488.535 241.956,477.535 238.5,466.5 Z"/></g>
<g><path style="opacity:1" fill="#c8eec6" d="M 498.5,454.5 C 499.919,455.451 501.585,455.784 503.5,455.5C 503.5,453.833 503.5,452.167 503.5,450.5C 503.957,444.048 505.124,437.714 507,431.5C 522.735,386.129 538.568,340.796 554.5,295.5C 576.833,294.167 599.167,294.167 621.5,295.5C 622.668,302.823 623.501,310.156 624,317.5C 619.599,321.955 614.432,325.288 608.5,327.5C 607.333,373.163 607.167,418.83 608,464.5C 613.504,466.673 618.504,469.673 623,473.5C 622.966,482.18 622.466,490.847 621.5,499.5C 598.5,499.5 575.5,499.5 552.5,499.5C 552.186,491.122 551.686,482.788 551,474.5C 555.205,469.96 560.205,466.626 566,464.5C 566.025,424.141 566.858,383.807 568.5,343.5C 567.5,343.5 566.5,343.5 565.5,343.5C 562.221,358.4 558.054,373.066 553,387.5C 540.147,424.392 527.48,461.392 515,498.5C 508.411,499.158 501.744,499.491 495,499.5C 488.256,499.491 481.589,499.158 475,498.5C 456.093,446.938 437.926,395.272 420.5,343.5C 419.554,350.83 419.72,358.164 421,365.5C 421.333,398.833 421.667,432.167 422,465.5C 427.688,467.841 432.688,471.174 437,475.5C 437.026,483.574 436.193,491.574 434.5,499.5C 415.167,499.5 395.833,499.5 376.5,499.5C 375.574,491.473 374.74,483.473 374,475.5C 378.346,471.162 383.346,467.829 389,465.5C 389.833,419.496 389.667,373.496 388.5,327.5C 382.601,325.301 377.435,321.967 373,317.5C 374.04,309.911 374.873,302.244 375.5,294.5C 398.5,294.5 421.5,294.5 444.5,294.5C 459.422,337.684 474.922,380.684 491,423.5C 494.457,433.62 496.957,443.954 498.5,454.5 Z"/></g>
<g><path style="opacity:1" fill="#4d7e3e" d="M 673.5,298.5 C 693.852,318.353 714.019,338.353 734,358.5C 743.172,369.011 748.672,381.178 750.5,395C 750.067,407.303 745.901,418.136 738,427.5C 717.029,449.472 695.695,471.139 674,492.5C 673.5,427.834 673.333,363.168 673.5,298.5 Z"/></g>
<g><path style="opacity:1" fill="#4d7e3e" d="M 126.5,302.5 C 127.665,366.999 127.832,431.665 127,496.5C 106.946,476.446 86.9459,456.446 67,436.5C 61.9149,430.003 57.5816,423.003 54,415.5C 48.3062,401.131 49.6395,387.464 58,374.5C 60.422,370.656 63.0887,366.99 66,363.5C 86.3683,343.299 106.535,322.965 126.5,302.5 Z"/></g>
<g><path style="opacity:1" fill="#508041" d="M 223.5,421.5 C 228.696,436.421 233.696,451.421 238.5,466.5C 236.416,468.077 234.416,469.91 232.5,472C 222.396,476.452 215.229,473.619 211,463.5C 204.684,475.61 196.351,477.277 186,468.5C 181.391,457.552 184.891,450.718 196.5,448C 192.848,447.501 189.182,447.335 185.5,447.5C 185.5,438.833 185.5,430.167 185.5,421.5C 188.448,421.223 191.281,421.556 194,422.5C 194.499,427.823 194.666,433.156 194.5,438.5C 199.43,438.197 204.263,438.531 209,439.5C 209.769,442.099 209.602,444.599 208.5,447C 205.167,447.333 201.833,447.667 198.5,448C 203.025,448.424 206.358,450.59 208.5,454.5C 201.788,458.159 202.454,459.326 210.5,458C 212.907,452.091 217.24,448.591 223.5,447.5C 214.125,445.629 209.958,439.962 211,430.5C 213.116,424.538 217.283,421.538 223.5,421.5 Z"/></g>
<g><path style="opacity:1" fill="#8cb783" d="M 503.5,450.5 C 503.5,452.167 503.5,453.833 503.5,455.5C 501.585,455.784 499.919,455.451 498.5,454.5C 499.833,454.5 501.167,454.5 502.5,454.5C 502.232,452.901 502.566,451.568 503.5,450.5 Z"/></g>
<g><path style="opacity:1" fill="#4e7f3f" d="M 136.5,520.5 C 183.298,565.465 229.298,611.298 274.5,658C 244.833,658.667 215.167,658.667 185.5,658C 159.133,655.63 143.633,641.464 139,615.5C 138.251,610.511 137.585,605.511 137,600.5C 136.5,573.835 136.333,547.169 136.5,520.5 Z"/></g>
<g><path style="opacity:1" fill="#508041" d="M 463.5,657.5 C 460.813,657.336 458.146,657.503 455.5,658C 452.488,660.221 451.821,663.054 453.5,666.5C 454.85,667.95 456.516,668.617 458.5,668.5C 456.369,670.685 453.703,672.018 450.5,672.5C 452.862,673.271 455.196,674.105 457.5,675C 465.5,682.333 465.5,689.667 457.5,697C 447.396,701.452 440.229,698.619 436,688.5C 429.684,700.61 421.351,702.277 411,693.5C 406.391,682.552 409.891,675.718 421.5,673C 417.848,672.501 414.182,672.335 410.5,672.5C 410.5,663.833 410.5,655.167 410.5,646.5C 413.448,646.223 416.281,646.556 419,647.5C 419.499,652.823 419.666,658.156 419.5,663.5C 424.43,663.197 429.263,663.531 434,664.5C 434.769,667.099 434.602,669.599 433.5,672C 430.167,672.333 426.833,672.667 423.5,673C 428.025,673.424 431.358,675.59 433.5,679.5C 426.788,683.159 427.454,684.326 435.5,683C 437.907,677.091 442.24,673.591 448.5,672.5C 446.138,671.729 443.804,670.895 441.5,670C 433.601,662.631 433.601,655.298 441.5,648C 452.237,643.376 459.571,646.542 463.5,657.5 Z"/></g>
<g><path style="opacity:1" fill="#508041" d="M 633.5,664.5 C 637.178,663.043 640.845,661.377 644.5,659.5C 644.5,660.833 644.5,662.167 644.5,663.5C 649.43,663.197 654.263,663.531 659,664.5C 659.769,667.099 659.602,669.599 658.5,672C 655.167,672.333 651.833,672.667 648.5,673C 653.025,673.424 656.358,675.59 658.5,679.5C 651.788,683.159 652.454,684.326 660.5,683C 662.907,677.091 667.24,673.591 673.5,672.5C 661.968,669.436 658.468,662.436 663,651.5C 668.7,645.693 675.2,644.526 682.5,648C 690.5,655.333 690.5,662.667 682.5,670C 680.196,670.895 677.862,671.729 675.5,672.5C 687.021,675.542 690.521,682.542 686,693.5C 678.333,701.5 670.667,701.5 663,693.5C 662.138,691.913 661.471,690.246 661,688.5C 654.684,700.61 646.351,702.277 636,693.5C 631.391,682.552 634.891,675.718 646.5,673C 642.848,672.501 639.182,672.335 635.5,672.5C 636.036,669.302 635.369,666.635 633.5,664.5 Z"/></g>
<g><path style="opacity:1" fill="#4f8040" d="M 185.5,668.5 C 201.5,668.5 217.5,668.5 233.5,668.5C 231.369,670.685 228.703,672.018 225.5,672.5C 237.021,675.542 240.521,682.542 236,693.5C 228.333,701.5 220.667,701.5 213,693.5C 212.138,691.913 211.471,690.246 211,688.5C 206.617,698.405 199.45,701.238 189.5,697C 182.133,690.27 181.8,683.27 188.5,676C 190.957,674.438 193.624,673.438 196.5,673C 192.848,672.501 189.182,672.335 185.5,672.5C 185.5,671.167 185.5,669.833 185.5,668.5 Z"/></g>
</svg>
